<svg version="1.2" xmlns="http://www.w3.org/2000/svg" viewBox="0 0 166 49" width="166" height="49">
	<title>logo-svg</title>
	<defs>
		<clipPath clipPathUnits="userSpaceOnUse" id="cp1">
			<path d="m72.01 0.03h93.96v48.29h-93.95z"/>
		</clipPath>
	</defs>
	<style>
		.s0 { fill: #bdbafa } 
		.s1 { fill: #ffffff } 
	</style>
	<g id="Layer">
		<path id="Layer" fill-rule="evenodd" class="s0" d="m27.9 1l28.1 13.2-28.1 13.2-27.9-13.1v-0.2zm0 21.6l17.9-8.4-17.9-8.4-17.9 8.4c0 0 17.9 8.4 17.9 8.4zm28.1-3.1l-0.1 4.8-28 13-27.9-12.9-0.1-4.8 28 12.9zm0 9.7v4.8l-28.1 13-27.9-13v-4.7l27.9 12.9z"/>
		<g id="Layer">
			<g id="Clip-Path" clip-path="url(#cp1)">
				<path id="Layer" fill-rule="evenodd" class="s1" d="m166 24.2q0 2.8-1.1 5.3-0.3 0.6-0.6 1.2-0.3 0.6-0.7 1.1-0.3 0.6-0.7 1.1-0.5 0.5-0.9 0.9-1.9 1.8-4.4 2.9-2.5 1-5.4 1-2.8 0-5.3-1-0.6-0.3-1.2-0.6-0.6-0.3-1.2-0.7-0.5-0.3-1-0.7-0.5-0.5-1-0.9-0.5-0.5-0.9-1-0.4-0.5-0.8-1-0.4-0.6-0.7-1.1-0.3-0.6-0.5-1.2-1.1-2.5-1.1-5.3 0-2.9 1.1-5.3 0.2-0.6 0.6-1.2 0.3-0.6 0.7-1.1 0.3-0.6 0.7-1.1 0.5-0.5 0.9-1 0.5-0.4 1-0.8 0.5-0.5 1.1-0.8 0.5-0.4 1.1-0.7 0.6-0.3 1.2-0.6 0.6-0.2 1.3-0.4 0.6-0.2 1.3-0.3 0.7-0.2 1.3-0.2 0.7-0.1 1.4-0.1 2.9 0 5.4 1 2.5 1.1 4.4 2.9 1.8 1.8 2.9 4.3 1.1 2.5 1.1 5.4zm-6.4 0q0-0.8-0.2-1.6-0.1-0.7-0.4-1.4-0.3-0.8-0.7-1.4-0.4-0.7-0.9-1.2-0.2-0.3-0.5-0.5-0.3-0.3-0.6-0.5-0.3-0.2-0.6-0.4-0.3-0.1-0.6-0.3-0.4-0.1-0.7-0.3-0.4-0.1-0.7-0.1-0.4-0.1-0.8-0.2-0.3 0-0.7 0-1.5 0-2.8 0.6-0.4 0.2-0.7 0.3-0.3 0.2-0.6 0.4-0.3 0.2-0.6 0.5-0.2 0.2-0.5 0.5-0.5 0.5-0.9 1.2-0.4 0.6-0.7 1.4-0.3 0.7-0.4 1.4-0.1 0.8-0.1 1.6 0 0.7 0.1 1.5 0.1 0.7 0.4 1.4 0.3 0.8 0.7 1.4 0.4 0.7 0.9 1.2 0.3 0.3 0.5 0.5 0.3 0.3 0.6 0.5 0.3 0.2 0.6 0.4 0.3 0.1 0.7 0.3 0.3 0.1 0.6 0.3 0.4 0.1 0.8 0.2 0.3 0 0.7 0.1 0.3 0 0.7 0 1.5 0 2.9-0.6 0.3-0.2 0.6-0.3 0.3-0.2 0.6-0.4 0.3-0.2 0.6-0.5 0.3-0.2 0.5-0.5 0.5-0.5 0.9-1.2 0.4-0.6 0.7-1.4 0.3-0.7 0.4-1.4 0.2-0.8 0.2-1.5zm-23.3 12.7q-0.2 0.1-0.5 0.2-0.2 0.1-0.4 0.1-0.2 0.1-0.4 0.2-0.2 0-0.5 0.1-0.9 0.2-1.9 0.2-0.4 0-0.7 0-0.4 0-0.7-0.1-0.4 0-0.7-0.1-0.3-0.1-0.7-0.2-0.3-0.1-0.6-0.2-0.3-0.1-0.6-0.3-0.3-0.1-0.6-0.3-0.2-0.2-0.5-0.4-1-0.8-1.5-2.2-0.6-1.4-0.6-3.3v-30.6h6.5v29.5q0 1.6 0.7 2.2 0.6 0.6 1.5 0.6 1.1 0 2.2-0.7zm-25.4 5q-1.3 3.4-3.4 4.9-2.1 1.6-5 1.6-0.4 0-0.9-0.1-0.2 0-0.3 0-0.1-0.1-0.3-0.1-0.1 0-0.2 0-0.1-0.1-0.3-0.1l-2.1-6q0.2 0.1 0.4 0.2 0.2 0.1 0.4 0.1 0.2 0.1 0.3 0.2 0.2 0 0.4 0.1 0.9 0.2 1.6 0.2 1.5 0 2.7-0.7 1.3-0.7 1.9-2.6l0.9-2.6-9.9-25.7h7l5.9 16.5 5.6-16.5c0 0 6.9 0 6.9 0zm-15.4-34.6h-16.7v8.3h16.5v5.7h-16.5v15.7h-6.8v-35.6h23.5c0 0 0 5.9 0 5.9z"/>
			</g>
		</g>
	</g>
</svg>